<?xml version="1.0" encoding="UTF-8" standalone="no"?>
<!-- Created with Inkscape (http://www.inkscape.org/) -->

<svg
   xmlns:dc="http://purl.org/dc/elements/1.1/"
   xmlns:cc="http://creativecommons.org/ns#"
   xmlns:rdf="http://www.w3.org/1999/02/22-rdf-syntax-ns#"
   xmlns:svg="http://www.w3.org/2000/svg"
   xmlns="http://www.w3.org/2000/svg"
   xmlns:sodipodi="http://sodipodi.sourceforge.net/DTD/sodipodi-0.dtd"
   xmlns:inkscape="http://www.inkscape.org/namespaces/inkscape"
   width="50mm"
   height="50mm"
   viewBox="0 0 50 50"
   version="1.1"
   id="svg8"
   sodipodi:docname="Icono.svg"
   inkscape:version="0.92.3 (2405546, 2018-03-11)">
  <defs
     id="defs2" />
  <sodipodi:namedview
     id="base"
     pagecolor="#ffffff"
     bordercolor="#666666"
     borderopacity="1.0"
     inkscape:pageopacity="0.0"
     inkscape:pageshadow="2"
     inkscape:zoom="0.35"
     inkscape:cx="400"
     inkscape:cy="657.45079"
     inkscape:document-units="mm"
     inkscape:current-layer="layer1"
     showgrid="false"
     inkscape:window-width="1366"
     inkscape:window-height="705"
     inkscape:window-x="-8"
     inkscape:window-y="-8"
     inkscape:window-maximized="1" />
  <metadata
     id="metadata5">
    <rdf:RDF>
      <cc:Work
         rdf:about="">
        <dc:format>image/svg+xml</dc:format>
        <dc:type
           rdf:resource="http://purl.org/dc/dcmitype/StillImage" />
        <dc:title></dc:title>
      </cc:Work>
    </rdf:RDF>
  </metadata>
  <g
     inkscape:label="Capa 1"
     inkscape:groupmode="layer"
     id="layer1"
     transform="translate(0,-247)">
    <path
       id="path3713"
       d="m 9.9172332,258.21763 c 0.4960508,0.008 0.9923558,0.006 1.4885098,0.004 0.367751,-10e-4 0.735506,-0.002 1.103263,-0.003 0.306724,-3.2e-4 0.613449,-3.2e-4 0.920175,-3.2e-4 0.304638,1e-5 0.609279,2e-5 0.913918,3e-5 0.341871,8.8e-4 0.683741,9.8e-4 1.025618,6.9e-4 0.355602,-1.5e-4 0.711211,-7e-5 1.066811,9e-4 0.429701,7.3e-4 0.859407,6.1e-4 1.289109,0.001 0.423185,-4.4e-4 0.846363,-4.3e-4 1.269548,-0.001 0.356365,-10e-4 0.712727,-2.8e-4 1.069095,-4.3e-4 0.332457,-3.4e-4 0.664914,-7e-4 0.997371,-9e-4 0.205461,-10e-5 0.410924,-1.4e-4 0.616385,-1.4e-4 0,0 -1.829753,0.85615 -1.829753,0.85615 v 0 c -0.205242,-2e-5 -0.410483,-3e-5 -0.615726,-1.4e-4 -0.331182,-2.1e-4 -0.662366,-5.6e-4 -0.993549,-9e-4 -0.355764,-1.4e-4 -0.711524,9.9e-4 -1.067284,-4.3e-4 -0.421298,-9e-4 -0.84259,-8.8e-4 -1.26389,-0.001 -0.431441,6.1e-4 -0.862887,5e-4 -1.29433,0.001 -0.356872,9.2e-4 -0.713752,9.9e-4 -1.070625,9e-4 -0.342868,-3.1e-4 -0.685731,-1.7e-4 -1.028592,6.9e-4 -0.304676,1e-5 -0.60935,2e-5 -0.914025,3e-5 -0.3063,-1e-5 -0.612603,10e-6 -0.918905,-3.2e-4 -0.363771,-4.5e-4 -0.7275398,-10e-4 -1.0913048,-0.003 -0.50183,-0.002 -1.003792,-0.004 -1.5055261,0.004 0,0 1.8337071,-0.858 1.8337071,-0.858 z"
       inkscape:connector-curvature="0"
       style="stroke-width:0.04290925" />
    <path
       id="path3715"
       d="m 16.167135,258.87177 c 0.09507,0.28148 0.24522,0.5542 0.419171,0.81914 0.15615,0.23233 0.279257,0.47271 0.427715,0.70701 0.171822,0.24919 0.321783,0.50346 0.472192,0.75822 0.134319,0.24975 0.273558,0.49783 0.426739,0.74304 0.111086,0.2172 0.224469,0.43445 0.32388,0.6541 0.107866,0.24 0.141548,0.48917 0.219874,0.73309 0.07067,0.23071 0.101808,0.46501 0.120019,0.69952 0.01454,0.22236 0.01144,0.44498 0.0086,0.66747 -0.0025,0.28152 -0.0024,0.56304 -0.004,0.84455 0.01553,0.25755 5.2e-5,0.51183 -0.05677,0.76672 -0.0482,0.21918 -0.207484,0.41105 -0.366768,0.60309 -0.222548,0.24569 -0.487151,0.47512 -0.764378,0.69616 -0.385968,0.29723 -0.836998,0.55555 -1.299843,0.80165 -0.95445,0.44927 -1.950813,0.92993 -3.06278,1.18595 -0.294249,0.1269 -0.620889,0.17982 -0.965322,0.21616 -0.359433,0.0327 -0.723005,0.0309 -1.085106,0.0322 -0.429333,0.0218 -0.781343,-0.12445 -1.1279128,-0.26703 -0.359165,-0.18718 -0.670958,-0.40714 -0.957694,-0.63942 -0.214725,-0.1962 -0.377811,-0.41541 -0.5144181,-0.6382 -0.114805,-0.25378 -0.255865,-0.50266 -0.364226,-0.75753 -0.100578,-0.24411 -0.129068,-0.4954 -0.143483,-0.74661 -0.0085,-0.24639 -0.0069,-0.49291 -0.0075,-0.73937 -3.84e-4,-0.20748 -3.24e-4,-0.41496 -3.03e-4,-0.62245 0,0 2.0150251,-0.66108 2.0150251,-0.66108 v 0 c -5.06e-4,0.20802 -0.0014,0.41604 -0.0038,0.62406 -0.0025,0.24519 -0.0054,0.4904 0.0019,0.73556 0.01018,0.2408 0.02876,0.4827 0.11631,0.71794 0.1029098,0.25021 0.2447028,0.49297 0.3556358,0.74179 0.128792,0.20935 0.280568,0.41629 0.477205,0.60283 0.269907,0.21989 0.561979,0.43151 0.916221,0.59693 0.334919,0.12899 0.659146,0.22525 1.060582,0.19755 0.354537,-0.003 0.711199,-0.009 1.05996,-0.054 0.333828,-0.051 0.634255,-0.14156 0.939291,-0.24102 0.746019,-0.24148 0.301961,-0.10018 -1.617731,0.61442 -0.06073,0.0226 0.120352,-0.0465 0.178639,-0.0716 0.220214,-0.0949 0.442149,-0.18813 0.655354,-0.28963 0.462253,-0.23903 0.921316,-0.4848 1.311156,-0.77386 0.277681,-0.21193 0.531399,-0.4356 0.767539,-0.6674 0.157886,-0.17978 0.318771,-0.35456 0.399419,-0.55634 0.06145,-0.24971 0.107449,-0.49668 0.08202,-0.75062 -0.0011,-0.28089 -2.63e-4,-0.56178 -0.0017,-0.84267 -0.0024,-0.2201 -0.0022,-0.44023 -0.0094,-0.66029 -0.01189,-0.22745 -0.03262,-0.45538 -0.101983,-0.67907 -0.07701,-0.24084 -0.108183,-0.48585 -0.205421,-0.72408 -0.10095,-0.21487 -0.222495,-0.42561 -0.317883,-0.64158 -0.149205,-0.2467 -0.289414,-0.49494 -0.419739,-0.74605 -0.157909,-0.25143 -0.298885,-0.50689 -0.47117,-0.75455 -0.156348,-0.23232 -0.28123,-0.47207 -0.427944,-0.70687 -0.17596,-0.27004 -0.318356,-0.54856 -0.446384,-0.82945 0,0 1.989251,-0.69832 1.989251,-0.69832 z"
       inkscape:connector-curvature="0"
       style="stroke-width:0.04290925" />
    <path
       id="path3717"
       d="m 24.24245,262.72664 c -0.01391,0.27532 -0.0085,0.55088 -0.0061,0.8263 -0.0025,0.23863 0.01338,0.47775 -0.01148,0.71595 -0.05823,0.23655 -0.08186,0.47585 -0.131602,0.71295 -0.05467,0.23 -0.13296,0.45441 -0.244636,0.67559 -0.144977,0.28653 -0.299646,0.57149 -0.415533,0.86364 -0.07947,0.26039 -0.17692,0.51813 -0.297745,0.77182 -0.105097,0.23109 -0.271228,0.44716 -0.41238,0.66924 -0.111502,0.17637 -0.257543,0.3418 -0.374961,0.51649 -0.11533,0.20093 -0.25826,0.3947 -0.377441,0.59454 -0.114019,0.22153 -0.315226,0.41673 -0.458612,0.62997 -0.141623,0.244 -0.308331,0.48041 -0.499853,0.70965 -0.193496,0.23375 -0.393823,0.46509 -0.578964,0.70168 -0.200914,0.24591 -0.456128,0.46766 -0.740376,0.67551 -0.271731,0.18304 -0.586436,0.33628 -0.88673,0.49882 -0.845703,0.45418 -1.875068,0.74034 -2.850414,1.06309 -0.805932,0.30805 0.283744,-0.10921 1.56677,-0.57682 0.06786,-0.0247 -0.132417,0.0531 -0.197349,0.0809 -0.169751,0.0727 -0.331241,0.15229 -0.491906,0.23291 -0.729576,0.4087 -1.546878,0.62594 -2.434589,0.95269 0,0 1.773582,-0.90921 1.773582,-0.90921 v 0 c -3.27815,1.23337 -2.083118,0.8414 -1.429747,0.50087 0.865538,-0.50569 1.989875,-0.80023 2.971761,-1.18883 0.05867,-0.0192 0.117344,-0.0384 0.176015,-0.0576 0.05232,-0.0164 0.105064,-0.0323 0.156966,-0.0492 0.05046,-0.0165 0.19894,-0.0694 0.150065,-0.0511 -3.143384,1.18008 -2.153147,0.80903 -1.480143,0.55291 0.277815,-0.17877 0.615322,-0.3143 0.896871,-0.49098 0.302109,-0.1888 0.547618,-0.40507 0.769057,-0.63525 0.177265,-0.24007 0.38071,-0.47063 0.573147,-0.70561 0.186391,-0.22633 0.383919,-0.44903 0.50801,-0.69415 0.124395,-0.21936 0.315949,-0.41373 0.463723,-0.62517 0.103797,-0.2067 0.263159,-0.39602 0.363095,-0.60367 0.124404,-0.17137 0.230418,-0.34744 0.383604,-0.51002 0.126205,-0.22595 0.312956,-0.43551 0.423951,-0.66536 0.137492,-0.24696 0.228321,-0.50389 0.304645,-0.76135 0.109541,-0.29571 0.271354,-0.58137 0.40957,-0.87167 0.101394,-0.217 0.20583,-0.42988 0.251739,-0.65598 0.07472,-0.23166 0.07031,-0.47186 0.139562,-0.70475 0.05106,-0.23282 0.01056,-0.46927 0.02506,-0.7038 0.0023,-0.27408 0.0079,-0.5483 -0.0061,-0.82228 0,0 2.01954,-0.6627 2.01954,-0.6627 z"
       inkscape:connector-curvature="0"
       style="stroke-width:0.04290925" />
    <path
       id="path3719"
       d="m 24.588776,263.85798 c 0.244486,0.27741 0.402992,0.583 0.545966,0.88726 0.09836,0.25858 0.186051,0.5195 0.254824,0.78212 0.05905,0.23116 0.06582,0.46551 0.06853,0.69917 -0.01879,0.25347 0.04035,0.50367 0.0877,0.75435 0.03902,0.2664 0.125072,0.52808 0.167404,0.79442 0.02086,0.28945 0.05946,0.57673 0.111475,0.86449 0.07249,0.25221 0.160353,0.50187 0.209482,0.75661 0.02301,0.23076 0.153883,0.4476 0.228274,0.67278 0.08039,0.24482 0.184333,0.4843 0.293706,0.72413 0.109975,0.22717 0.201822,0.45763 0.31684,0.68378 0.145469,0.25734 0.308219,0.50999 0.484715,0.75902 0.0959,0.17563 0.199904,0.34508 0.345057,0.50597 0.122925,0.1504 0.217294,0.30852 0.328119,0.46248 0.116985,0.10327 0.203564,0.21111 0.230716,0.33817 0,0 -2.049365,0.64255 -2.049365,0.64255 v 0 c 0.123807,-0.0426 -0.121901,-0.21176 -0.154556,-0.2626 -0.106658,-0.15042 -0.19984,-0.30384 -0.319523,-0.45035 -0.147314,-0.16648 -0.25483,-0.34061 -0.344124,-0.5235 -0.172713,-0.25512 -0.337453,-0.51202 -0.493864,-0.77151 -0.121729,-0.22708 -0.212199,-0.45969 -0.328291,-0.68787 -0.103258,-0.24473 -0.206917,-0.4883 -0.293729,-0.7358 -0.07241,-0.23013 -0.222031,-0.44759 -0.244527,-0.68263 -0.03924,-0.25605 -0.116573,-0.50771 -0.198131,-0.75943 -0.05344,-0.2883 -0.105305,-0.5752 -0.116016,-0.86583 -0.04038,-0.2656 -0.124078,-0.52621 -0.169604,-0.79103 -0.04418,-0.25566 -0.119458,-0.50967 -0.09775,-0.76802 -0.0057,-0.22691 -0.0095,-0.4545 -0.05552,-0.67988 -0.05881,-0.25865 -0.151035,-0.51324 -0.23191,-0.76918 -0.126246,-0.29105 -0.272626,-0.58737 -0.530856,-0.84193 0,0 1.954931,-0.73774 1.954931,-0.73774 z"
       inkscape:connector-curvature="0"
       style="stroke-width:0.04290925" />
    <path
       id="path3721"
       d="m 24.025785,272.3178 c -0.170506,-0.20342 -0.370107,-0.39478 -0.611739,-0.5657 -0.178768,-0.13136 -0.354761,-0.26717 -0.55604,-0.38468 -0.197594,-0.0894 -0.35992,-0.18996 -0.591991,-0.24236 -0.276332,-0.068 -0.537389,-0.15322 -0.780193,-0.26241 -0.04833,-0.0161 -0.09666,-0.0321 -0.144989,-0.0481 0,0 1.890126,-0.7954 1.890126,-0.7954 v 0 c 0.05295,0.0192 0.10591,0.0384 0.158864,0.0576 0.240839,0.0962 0.496068,0.17332 0.76072,0.23857 0.23687,0.074 0.433954,0.18088 0.639002,0.28601 0.195849,0.12634 0.379527,0.26067 0.55697,0.39774 0.249881,0.18341 0.447186,0.39062 0.649854,0.59612 0,0 -1.970584,0.72261 -1.970584,0.72261 z"
       inkscape:connector-curvature="0"
       style="stroke-width:0.04290925" />
    <path
       id="path3723"
       d="m 23.679157,275.14815 c 0.480362,0.27676 0.987952,0.53296 1.475778,0.80403 0.5117,0.27475 0.916761,0.61495 1.305914,0.95995 0.278165,0.26796 0.4801,0.56417 0.726266,0.84382 0.27894,0.34775 0.549302,0.698 0.835513,1.04356 0.261086,0.3078 0.534085,0.61142 0.786711,0.92235 0.195818,0.22241 0.364925,0.45269 0.523306,0.68677 0.144886,0.22045 0.299815,0.43811 0.497671,0.64116 0.01664,0.006 0.03858,0.0269 0.0499,0.0172 0.0172,-0.0148 0.01986,-0.0639 -0.0056,-0.0554 -0.655051,0.21846 -1.27801,0.47498 -1.9276,0.7001 -0.02482,0.009 0.03471,-0.0296 0.04288,-0.0469 0.02504,-0.0534 0.03321,-0.17512 0.03873,-0.22347 0.0133,-0.4202 0.11802,-0.83547 0.197091,-1.25175 0.105328,-0.52866 0.316772,-1.04509 0.490007,-1.56549 0.133548,-0.48765 0.300338,-0.9709 0.450457,-1.45649 0.127128,-0.42385 0.23309,-0.85009 0.341118,-1.27607 0.07498,-0.42159 0.219266,-0.83211 0.393822,-1.24045 0.223923,-0.42739 0.375091,-0.86871 0.614649,-1.29244 0.223519,-0.39819 0.51862,-0.77673 0.837771,-1.14602 0.199745,-0.23606 0.413582,-0.465 0.657145,-0.68329 0.171526,-0.15251 0.08812,-0.0767 0.250403,-0.22723 0,0 2.061381,-0.58059 2.061381,-0.58059 v 0 c -0.157036,0.15678 -0.07449,0.0799 -0.247768,0.23059 -0.237199,0.21948 -0.479574,0.43488 -0.674434,0.67203 -0.3248,0.36641 -0.655036,0.73289 -0.873366,1.1329 -0.257246,0.41547 -0.378794,0.85649 -0.614618,1.27731 -0.17274,0.40477 -0.339369,0.80836 -0.405879,1.22773 -0.112624,0.42746 -0.207261,0.85685 -0.341392,1.282 -0.15854,0.48632 -0.320427,0.97217 -0.461367,1.46067 -0.164351,0.51676 -0.382243,1.02722 -0.488365,1.55105 -0.07413,0.40962 -0.184033,0.81899 -0.175551,1.23252 -0.0014,0.077 0.01233,0.32152 -0.0076,0.33012 -1.071511,0.46157 -1.559179,1.14551 -2.15983,0.6608 -0.184286,-0.21469 -0.357791,-0.43221 -0.507423,-0.65788 -0.156391,-0.23142 -0.312639,-0.46246 -0.50418,-0.6833 -0.243592,-0.31304 -0.519633,-0.61475 -0.776116,-0.92323 -0.286967,-0.34384 -0.545489,-0.69656 -0.834926,-1.03914 -0.245938,-0.27458 -0.45776,-0.56173 -0.720299,-0.83007 -0.364516,-0.34178 -0.753809,-0.67441 -1.25792,-0.93727 -0.498121,-0.27349 -1.011326,-0.53604 -1.524553,-0.7976 0,0 1.932365,-0.76262 1.932365,-0.76262 z"
       inkscape:connector-curvature="0"
       style="stroke-width:0.04290925" />
    <path
       id="path3725"
       d="m 39.929189,277.11493 c -0.389153,0.21375 -0.784104,0.42293 -1.169982,0.63915 -0.338747,0.18577 -0.62289,0.40721 -0.916895,0.62106 -0.331979,0.20757 -0.613011,0.44355 -0.863882,0.69312 -0.247258,0.25126 -0.456037,0.51663 -0.681549,0.77597 -0.239761,0.26125 -0.420438,0.54155 -0.634645,0.81117 -0.256746,0.33039 -0.46299,0.67433 -0.657337,1.02142 -0.242246,0.40877 -0.480852,0.81902 -0.686751,1.23603 -0.223542,0.47838 -0.473574,0.95022 -0.626453,1.44059 -0.103665,0.37018 -0.131549,0.74615 -0.140246,1.12146 0.0016,0.26338 -0.0025,0.52674 -0.0018,0.79011 0.0044,0.31768 0.160801,0.61662 0.331355,0.91038 0.142979,0.25311 0.353774,0.48751 0.602966,0.70293 0.280082,0.18441 0.619401,0.29987 0.979095,0.40358 0.385108,0.11198 0.801257,0.12657 1.216388,0.1395 0.475956,0.011 0.952313,0.008 1.428445,0.005 0.462482,0.0212 0.838115,-0.13383 1.227202,-0.26888 -3.086357,1.1438 -1.730573,0.67507 -1.113795,0.35788 0.241583,-0.12424 0.464392,-0.26217 0.687941,-0.39935 0.397539,-0.23212 0.661878,-0.52342 0.888165,-0.83176 0.202301,-0.2684 0.25741,-0.56302 0.292306,-0.85652 0.04754,-0.29918 0.0012,-0.59313 -0.10542,-0.88422 -0.108408,-0.22382 -0.300494,-0.43009 -0.494126,-0.62774 -0.146941,-0.14839 -0.319598,-0.29291 -0.513699,-0.41749 -0.23813,-0.12338 -0.54321,-0.12653 -0.834701,-0.13721 -0.485409,-0.0326 -0.843776,0.10215 -1.24487,0.25311 3.060278,-1.15168 1.949659,-0.80024 1.385876,-0.43008 -0.15741,0.10335 -0.294644,0.21773 -0.434732,0.33063 -0.277095,0.21157 -0.528125,0.43525 -0.775507,0.66133 -0.22054,0.21175 -0.457477,0.41719 -0.645809,0.64181 -0.183365,0.2196 -0.3714,0.43761 -0.544193,0.66077 -0.195419,0.23022 -0.376127,0.46554 -0.515647,0.71221 -0.04216,0.12499 -0.05656,0.0332 0.02013,0.0124 0.02918,-0.008 0.06187,-0.009 0.0928,-0.013 0.03592,-0.0102 0.07183,-0.0203 0.107748,-0.0305 0.333164,-0.0713 0.661557,-0.14261 1.009221,-0.18108 0.274633,-0.0296 0.529183,-0.0429 0.789296,0.0256 0,0 -1.870699,0.82244 -1.870699,0.82244 v 0 c -0.240245,-0.0262 -0.481092,9.1e-4 -0.718645,0.0299 -0.342254,0.0512 -0.66878,0.13273 -1.007524,0.19205 -0.286682,0.0247 -0.545475,-0.0131 -0.474222,-0.24545 0.159499,-0.24604 0.30227,-0.4982 0.517432,-0.72735 0.173329,-0.22191 0.340521,-0.44633 0.538415,-0.65925 0.172556,-0.2382 0.411887,-0.44643 0.642719,-0.66244 0.240053,-0.23192 0.489312,-0.45892 0.765572,-0.6727 0.148398,-0.11184 0.278362,-0.2311 0.429303,-0.34158 0.659187,-0.48245 1.498071,-0.70287 2.434697,-1.03339 0.41993,-0.14279 0.851338,-0.23033 1.33253,-0.18955 0.343875,0.0217 0.675777,0.0593 0.932504,0.22192 0.198631,0.13687 0.390795,0.28331 0.536134,0.44583 0.198685,0.21415 0.402741,0.43294 0.520684,0.67138 0.109921,0.30405 0.176036,0.61028 0.132073,0.92347 -0.02571,0.30739 -0.07148,0.61788 -0.254663,0.90556 -0.235156,0.31783 -0.465738,0.63592 -0.870447,0.88308 -1.026262,0.65107 -1.990026,1.06325 -3.378738,1.49093 -0.414794,0.13913 -0.830027,0.24575 -1.308214,0.22056 -0.475529,-10e-4 -0.951189,-0.003 -1.426352,-0.0165 -0.439605,-0.0182 -0.871543,-0.0509 -1.271346,-0.18008 -0.388773,-0.11526 -0.748478,-0.261 -1.041727,-0.46517 -0.260069,-0.22784 -0.473351,-0.47566 -0.626884,-0.74121 -0.176269,-0.30939 -0.345534,-0.6217 -0.370108,-0.95463 -0.002,-0.26437 -0.01372,-0.52873 -0.0016,-0.79308 0.01708,-0.38531 0.05,-0.77094 0.149522,-1.15165 0.144124,-0.49615 0.389692,-0.97175 0.617255,-1.45408 0.188558,-0.42024 0.423805,-0.83252 0.672589,-1.23938 0.192257,-0.3506 0.385596,-0.69908 0.629412,-1.03661 0.229261,-0.26455 0.390927,-0.54879 0.626754,-0.81108 0.222713,-0.26334 0.448952,-0.52566 0.684154,-0.78445 0.235955,-0.25761 0.503801,-0.50921 0.839493,-0.71734 0.315435,-0.20721 0.580096,-0.4439 0.915559,-0.63887 0.276741,-0.1481 0.541304,-0.30491 0.819092,-0.45216 0.06112,-0.0324 0.130415,-0.0582 0.189641,-0.092 0.04884,-0.0279 0.08887,-0.0616 0.133299,-0.0924 0,0 2.105495,-0.54416 2.105495,-0.54416 z"
       inkscape:connector-curvature="0"
       style="stroke-width:0.04290925" />
  </g>
</svg>
